<svg width="75" height="32" viewBox="0 0 75 32" fill="none" xmlns="http://www.w3.org/2000/svg">
<path d="M16.524 0.0703125C17.436 0.0703125 18.384 0.238312 19.368 0.574312C20.352 0.910312 21.216 1.34231 21.96 1.87031C21.72 3.09431 21.492 4.19831 21.276 5.18231C21.084 6.16631 20.904 7.06631 20.736 7.88231C20.568 8.67431 20.4 9.40631 20.232 10.0783C20.088 10.7263 19.944 11.3383 19.8 11.9143C19.224 14.0743 18.624 16.0303 18 17.7823C17.4 19.5103 16.752 21.0703 16.056 22.4623C15.384 23.8543 14.664 25.0903 13.896 26.1703C13.152 27.2503 12.348 28.1983 11.484 29.0143C10.644 29.8063 9.804 30.4543 8.964 30.9583C8.124 31.4623 7.344 31.7863 6.624 31.9303C5.664 31.9303 4.776 31.8223 3.96 31.6063C3.144 31.3903 2.436 31.0903 1.836 30.7063C1.26 30.3463 0.804 29.9023 0.468 29.3743C0.156 28.8703 0 28.3063 0 27.6823C0 27.0103 0.168 26.1703 0.504 25.1623C0.84 24.1303 1.356 22.9183 2.052 21.5263C2.34 21.5503 2.676 21.6223 3.06 21.7423C3.444 21.8623 3.828 22.0063 4.212 22.1743C4.596 22.3423 4.944 22.5343 5.256 22.7503C5.568 22.9423 5.796 23.1343 5.94 23.3263C5.172 24.1183 4.548 24.9943 4.068 25.9543C3.588 26.8903 3.348 27.7063 3.348 28.4023C3.348 28.8103 3.42 29.1703 3.564 29.4823C3.732 29.8183 4.008 30.1183 4.392 30.3823C5.856 29.8303 7.284 28.7983 8.676 27.2863C10.068 25.7983 11.304 23.9383 12.384 21.7063C13.032 20.3863 13.62 18.8743 14.148 17.1703C14.676 15.4663 15.12 13.7623 15.48 12.0583C15.864 10.3303 16.152 8.68631 16.344 7.12631C16.56 5.54231 16.668 4.21031 16.668 3.13031C16.668 2.96231 16.656 2.73431 16.632 2.44631C16.632 2.13431 16.62 1.82231 16.596 1.51031C16.596 1.17431 16.584 0.874311 16.56 0.610312C16.536 0.346313 16.524 0.166313 16.524 0.0703125Z" fill="black"/>
<path d="M21.9625 27.9343C20.5945 27.7903 19.5025 27.1903 18.6865 26.1343C17.8705 25.0783 17.4625 23.7343 17.4625 22.1023C17.4625 21.1423 17.6065 20.1463 17.8945 19.1143C18.1825 18.0823 18.5905 17.0863 19.1185 16.1263C19.6465 15.1423 20.2705 14.2183 20.9905 13.3543C21.7105 12.4903 22.4905 11.7463 23.3305 11.1223C24.6505 10.1383 25.8865 9.64631 27.0385 9.64631C27.8065 10.0543 28.5625 10.9063 29.3065 12.2023C29.4265 12.2023 29.5345 12.2023 29.6305 12.2023C29.7265 12.1783 29.8345 12.1663 29.9545 12.1663C31.2265 12.1663 31.8625 13.2943 31.8625 15.5503C31.8625 17.0623 31.6105 18.5023 31.1065 19.8703C30.6265 21.2143 29.9425 22.4383 29.0545 23.5423C28.1905 24.6463 27.1465 25.5823 25.9225 26.3503C24.7225 27.0943 23.4025 27.6223 21.9625 27.9343ZM23.7985 16.5943C23.3905 17.1463 23.0065 17.7463 22.6465 18.3943C22.2865 19.0423 21.9745 19.7023 21.7105 20.3743C21.4465 21.0223 21.2425 21.6583 21.0985 22.2823C20.9545 22.8823 20.8825 23.4223 20.8825 23.9023C20.8825 24.4783 20.9785 25.0303 21.1705 25.5583C21.3625 26.0863 21.5785 26.3863 21.8185 26.4583C22.8985 26.2183 23.8825 25.7743 24.7705 25.1263C25.6825 24.4543 26.4625 23.6263 27.1105 22.6423C27.7825 21.6583 28.2985 20.5423 28.6585 19.2943C29.0425 18.0463 29.2345 16.7143 29.2345 15.2983C29.2345 14.6743 29.1985 14.1823 29.1265 13.8223C29.0545 13.4623 28.9345 13.1503 28.7665 12.8863C27.7105 13.1983 26.7625 13.7023 25.9225 14.3983C25.1065 15.0943 24.3985 15.8263 23.7985 16.5943Z" fill="black"/>
<path d="M32.3176 12.8863C32.1976 12.7423 32.0896 12.4423 31.9936 11.9863C31.8976 11.5063 31.8496 11.0983 31.8496 10.7623C32.4736 10.8103 33.0736 10.8583 33.6496 10.9063C34.2256 10.9303 34.7536 10.9543 35.2336 10.9783C35.5936 10.2583 35.9776 9.55031 36.3856 8.85431C36.8176 8.13431 37.2256 7.48631 37.6096 6.91031C38.0176 6.31031 38.3896 5.80631 38.7256 5.39831C39.0856 4.99031 39.3616 4.72631 39.5536 4.60631C39.7936 4.60631 40.0936 4.65431 40.4536 4.75031C40.8376 4.82231 41.2216 4.93031 41.6056 5.07431C41.9896 5.19431 42.3376 5.32631 42.6496 5.47031C42.9616 5.61431 43.1776 5.75831 43.2976 5.90231C42.5776 6.81431 41.9536 7.66631 41.4256 8.45831C40.9216 9.22631 40.3696 10.1143 39.7696 11.1223C40.2496 11.1223 40.7296 11.1103 41.2096 11.0863C41.7136 11.0623 42.2176 11.0263 42.7216 10.9783C42.8416 11.0983 42.9376 11.2543 43.0096 11.4463C43.0816 11.6143 43.1176 11.7943 43.1176 11.9863C41.9416 12.4183 40.5136 12.6583 38.8336 12.7063C38.2336 13.8583 37.6936 15.0103 37.2136 16.1623C36.7576 17.2903 36.3616 18.3823 36.0256 19.4383C35.7136 20.4943 35.4616 21.4903 35.2696 22.4263C35.1016 23.3623 35.0176 24.2023 35.0176 24.9463C35.0176 26.0023 35.4136 26.5903 36.2056 26.7103C36.9256 26.6143 37.6096 26.4343 38.2576 26.1703C38.9056 25.9063 39.4816 25.5703 39.9856 25.1623C40.1296 25.3783 40.2136 25.5583 40.2376 25.7023C40.0936 25.9183 39.8416 26.1703 39.4816 26.4583C39.1456 26.7463 38.7736 27.0223 38.3656 27.2863C37.9576 27.5743 37.5616 27.8143 37.1776 28.0063C36.7936 28.1983 36.5056 28.3063 36.3136 28.3303C35.7136 28.3063 35.1136 28.1743 34.5136 27.9343C33.9136 27.6943 33.3616 27.3943 32.8576 27.0343C32.3776 26.6743 31.9816 26.2783 31.6696 25.8463C31.3576 25.3903 31.2016 24.9463 31.2016 24.5143C31.2016 23.9383 31.2736 23.2183 31.4176 22.3543C31.5856 21.4663 31.8136 20.5063 32.1016 19.4743C32.3896 18.4423 32.7256 17.3623 33.1096 16.2343C33.4936 15.1063 33.9136 13.9903 34.3696 12.8863H32.3176Z" fill="black"/>
<path d="M41.9138 12.8863C41.7938 12.7423 41.6858 12.4423 41.5898 11.9863C41.4938 11.5063 41.4458 11.0983 41.4458 10.7623C42.0698 10.8103 42.6698 10.8583 43.2458 10.9063C43.8218 10.9303 44.3498 10.9543 44.8298 10.9783C45.1898 10.2583 45.5738 9.55031 45.9818 8.85431C46.4138 8.13431 46.8218 7.48631 47.2058 6.91031C47.6138 6.31031 47.9858 5.80631 48.3218 5.39831C48.6818 4.99031 48.9578 4.72631 49.1498 4.60631C49.3898 4.60631 49.6898 4.65431 50.0498 4.75031C50.4338 4.82231 50.8178 4.93031 51.2018 5.07431C51.5858 5.19431 51.9338 5.32631 52.2458 5.47031C52.5578 5.61431 52.7738 5.75831 52.8938 5.90231C52.1738 6.81431 51.5498 7.66631 51.0218 8.45831C50.5178 9.22631 49.9658 10.1143 49.3658 11.1223C49.8458 11.1223 50.3258 11.1103 50.8058 11.0863C51.3098 11.0623 51.8138 11.0263 52.3178 10.9783C52.4378 11.0983 52.5338 11.2543 52.6058 11.4463C52.6778 11.6143 52.7138 11.7943 52.7138 11.9863C51.5378 12.4183 50.1098 12.6583 48.4298 12.7063C47.8298 13.8583 47.2898 15.0103 46.8098 16.1623C46.3538 17.2903 45.9578 18.3823 45.6218 19.4383C45.3098 20.4943 45.0578 21.4903 44.8658 22.4263C44.6978 23.3623 44.6138 24.2023 44.6138 24.9463C44.6138 26.0023 45.0098 26.5903 45.8018 26.7103C46.5218 26.6143 47.2058 26.4343 47.8538 26.1703C48.5018 25.9063 49.0778 25.5703 49.5818 25.1623C49.7258 25.3783 49.8098 25.5583 49.8338 25.7023C49.6898 25.9183 49.4378 26.1703 49.0778 26.4583C48.7418 26.7463 48.3698 27.0223 47.9618 27.2863C47.5538 27.5743 47.1578 27.8143 46.7738 28.0063C46.3898 28.1983 46.1018 28.3063 45.9098 28.3303C45.3098 28.3063 44.7098 28.1743 44.1098 27.9343C43.5098 27.6943 42.9578 27.3943 42.4538 27.0343C41.9738 26.6743 41.5778 26.2783 41.2658 25.8463C40.9538 25.3903 40.7978 24.9463 40.7978 24.5143C40.7978 23.9383 40.8698 23.2183 41.0138 22.3543C41.1818 21.4663 41.4098 20.5063 41.6978 19.4743C41.9858 18.4423 42.3218 17.3623 42.7058 16.2343C43.0898 15.1063 43.5098 13.9903 43.9658 12.8863H41.9138Z" fill="black"/>
<path d="M62.2741 11.7703C62.1781 13.2583 61.9141 14.5423 61.4821 15.6223C61.0501 16.6783 60.4261 17.6143 59.6101 18.4303C58.8181 19.2223 57.8461 19.9423 56.6941 20.5903C55.5421 21.2383 54.1981 21.8623 52.6621 22.4623C52.6621 22.6063 52.6501 22.7623 52.6261 22.9303C52.6261 23.0743 52.6261 23.2303 52.6261 23.3983C52.6261 23.7103 52.6501 24.0343 52.6981 24.3703C52.7461 24.7063 52.8301 25.0183 52.9501 25.3063C53.0701 25.5943 53.2381 25.8343 53.4541 26.0263C53.6701 26.1943 53.9461 26.2783 54.2821 26.2783C54.9301 26.2783 55.5661 26.1343 56.1901 25.8463C56.8141 25.5583 57.4021 25.2103 57.9541 24.8023C58.5301 24.3703 59.0581 23.9143 59.5381 23.4343C60.0421 22.9303 60.4861 22.4743 60.8701 22.0663C61.1101 22.2823 61.3141 22.4863 61.4821 22.6783C60.4021 24.1183 59.2141 25.3183 57.9181 26.2783C56.6461 27.2143 55.4341 27.8143 54.2821 28.0783C52.6261 27.8863 51.3301 27.2863 50.3941 26.2783C49.4821 25.2463 49.0261 24.0103 49.0261 22.5703C49.0261 21.5863 49.1581 20.5903 49.4221 19.5823C49.7101 18.5503 50.0941 17.5663 50.5741 16.6303C51.0781 15.6703 51.6541 14.7703 52.3021 13.9303C52.9741 13.0903 53.6821 12.3583 54.4261 11.7343C55.1941 11.1103 55.9741 10.6183 56.7661 10.2583C57.5821 9.89831 58.3861 9.71831 59.1781 9.71831C60.2821 9.86231 61.3141 10.5463 62.2741 11.7703ZM59.7901 12.9583C59.1421 13.0543 58.4701 13.3183 57.7741 13.7503C57.0781 14.1823 56.4181 14.7583 55.7941 15.4783C55.1941 16.1983 54.6421 17.0383 54.1381 17.9983C53.6341 18.9583 53.2381 19.9903 52.9501 21.0943C54.8701 20.1343 56.4661 18.9583 57.7381 17.5663C59.0101 16.1503 59.6941 14.6143 59.7901 12.9583Z" fill="black"/>
<path d="M60.0168 25.9543C60.1368 25.2583 60.3408 24.3463 60.6288 23.2183C60.9408 22.0663 61.3008 20.8543 61.7088 19.5823C62.1168 18.2863 62.5488 16.9903 63.0048 15.6943C63.4608 14.3983 63.9048 13.2343 64.3368 12.2023C64.6488 11.4583 64.9248 10.8823 65.1648 10.4743C65.4048 10.0423 65.6688 9.68231 65.9568 9.39431C66.2928 9.44231 66.6408 9.52631 67.0008 9.64631C67.3608 9.76631 67.7088 9.91031 68.0448 10.0783C68.3808 10.2463 68.6808 10.4263 68.9448 10.6183C69.2088 10.7863 69.4128 10.9543 69.5568 11.1223C68.9088 11.8903 68.3328 12.7663 67.8288 13.7503C67.3488 14.7343 66.8568 15.9943 66.3528 17.5303C67.6488 16.3783 68.7888 15.2743 69.7728 14.2183C70.7808 13.1623 71.7168 11.9863 72.5808 10.6903C72.7248 10.5703 72.9768 10.5103 73.3368 10.5103C73.6728 10.5103 73.9968 10.5703 74.3088 10.6903C74.6208 10.7863 74.8368 10.9303 74.9568 11.1223C74.5248 12.2743 74.3088 13.4143 74.3088 14.5423C74.3088 15.5983 74.4648 16.3903 74.7768 16.9183C74.7528 17.0623 74.5848 17.3383 74.2728 17.7463C73.9848 18.1543 73.6608 18.5383 73.3008 18.8983C72.6528 18.5623 72.0768 18.1063 71.5728 17.5303C71.0688 16.9303 70.6968 16.2823 70.4568 15.5863C69.3288 16.3783 68.3688 17.1583 67.5768 17.9263C66.7848 18.6703 66.1008 19.5103 65.5248 20.4463C64.9728 21.3583 64.4928 22.4143 64.0848 23.6143C63.7008 24.8143 63.3288 26.2423 62.9688 27.8983C62.7528 27.8743 62.4888 27.7903 62.1768 27.6463C61.8888 27.5263 61.5888 27.3703 61.2768 27.1783C60.9888 26.9863 60.7248 26.7823 60.4848 26.5663C60.2448 26.3503 60.0888 26.1463 60.0168 25.9543Z" fill="black"/>
</svg>
